<svg width="30" height="31" viewBox="0 0 30 31" fill="none" xmlns="http://www.w3.org/2000/svg">
<path d="M0 15.2754C0 6.99112 6.71573 0.275391 15 0.275391C23.2843 0.275391 30 6.99112 30 15.2754C30 23.5597 23.2843 30.2754 15 30.2754C6.71573 30.2754 0 23.5597 0 15.2754Z" fill="#FFE812"/>
<path d="M15 7.15039C9.47711 7.15039 5 10.6805 5 15.035C5 17.8503 6.87173 20.3206 9.68731 21.7155C9.53413 22.2438 8.70298 25.1139 8.6699 25.3394C8.6699 25.3394 8.65 25.5089 8.75971 25.5735C8.86942 25.6381 8.99846 25.5879 8.99846 25.5879C9.31308 25.5439 12.6468 23.2022 13.2238 22.7956C13.8003 22.8772 14.3938 22.9196 15 22.9196C20.5229 22.9196 25 19.3896 25 15.035C25 10.6805 20.5229 7.15039 15 7.15039Z" fill="#381F1F"/>
<path d="M9.471 17.7879C9.15283 17.7879 8.89408 17.5407 8.89408 17.2369V13.8095H7.99389C7.68168 13.8095 7.42773 13.556 7.42773 13.2446C7.42773 12.9331 7.68177 12.6797 7.99389 12.6797H10.9481C11.2603 12.6797 11.5143 12.9331 11.5143 13.2446C11.5143 13.556 11.2602 13.8095 10.9481 13.8095H10.0479V17.2369C10.0479 17.5407 9.78918 17.7879 9.471 17.7879ZM14.5298 17.7804C14.2893 17.7804 14.1052 17.6827 14.0498 17.5256L13.7641 16.7777L12.0048 16.7776L11.719 17.5259C11.6637 17.6828 11.4798 17.7804 11.2392 17.7804C11.1126 17.7805 10.9875 17.7533 10.8724 17.7007C10.7134 17.6274 10.5605 17.4256 10.7357 16.8815L12.1157 13.2492C12.2129 12.973 12.5082 12.6883 12.884 12.6798C13.2608 12.6882 13.5561 12.973 13.6535 13.2498L15.0329 16.8805C15.2085 17.4258 15.0556 17.6277 14.8966 17.7008C14.7814 17.7533 14.6564 17.7805 14.5298 17.7804C14.5298 17.7804 14.5298 17.7804 14.5298 17.7804ZM13.4607 15.7557L12.8845 14.1187L12.3082 15.7557H13.4607ZM15.9614 17.7037C15.6565 17.7037 15.4085 17.4664 15.4085 17.1749V13.2566C15.4085 12.9384 15.6727 12.6797 15.9974 12.6797C16.3222 12.6797 16.5864 12.9384 16.5864 13.2566V16.646H17.8123C18.1172 16.646 18.3652 16.8833 18.3652 17.1749C18.3652 17.4664 18.1172 17.7037 17.8123 17.7037H15.9614ZM19.1666 17.7804C18.8484 17.7804 18.5897 17.5216 18.5897 17.2034V13.2566C18.5897 12.9384 18.8484 12.6797 19.1666 12.6797C19.4847 12.6797 19.7435 12.9384 19.7435 13.2566V14.4966L21.3531 12.887C21.4359 12.8042 21.5497 12.7586 21.6731 12.7586C21.8172 12.7586 21.9618 12.8207 22.0701 12.929C22.1712 13.03 22.2315 13.1599 22.2397 13.2948C22.2481 13.4308 22.2028 13.5556 22.1124 13.646L20.7977 14.9606L22.2178 16.8419C22.2637 16.9023 22.2971 16.9711 22.3161 17.0445C22.3351 17.1179 22.3394 17.1943 22.3286 17.2693C22.3183 17.3444 22.2932 17.4167 22.2548 17.482C22.2164 17.5473 22.1654 17.6043 22.1047 17.6498C22.005 17.7256 21.883 17.7665 21.7577 17.7662C21.6683 17.7666 21.5801 17.7461 21.5001 17.7063C21.42 17.6665 21.3504 17.6085 21.2969 17.5369L19.9439 15.7442L19.7437 15.9444V17.2031C19.7435 17.3562 19.6827 17.5029 19.5745 17.6111C19.4663 17.7193 19.3196 17.7802 19.1666 17.7804Z" fill="#FFE812"/>
</svg>
