<svg width="10" height="6" viewBox="0 0 10 6" fill="none" xmlns="http://www.w3.org/2000/svg">
<path d="M5 0C3.08939 0 1.35676 1.04531 0.0782449 2.74317C-0.0260816 2.88228 -0.0260816 3.07661 0.0782449 3.21571C1.35676 4.91562 3.08939 5.96093 5 5.96093C6.91061 5.96093 8.64324 4.91562 9.92175 3.21776C10.0261 3.07866 10.0261 2.88432 9.92175 2.74522C8.64324 1.04531 6.91061 0 5 0ZM5.13706 5.07927C3.86877 5.15905 2.82142 4.11374 2.9012 2.84341C2.96666 1.79605 3.81559 0.947121 4.86294 0.881661C6.13123 0.801882 7.17858 1.84719 7.0988 3.11752C7.0313 4.16283 6.18237 5.01176 5.13706 5.07927ZM5.07364 4.10965C4.39041 4.1526 3.82582 3.59006 3.87082 2.90682C3.90559 2.34223 4.36381 1.88606 4.9284 1.84924C5.61164 1.80628 6.17623 2.36883 6.13123 3.05206C6.09441 3.6187 5.63619 4.07487 5.07364 4.10965Z" fill="#DDE3EC"/>
</svg>
