<svg width="30" height="30" viewBox="0 0 30 30" fill="none" xmlns="http://www.w3.org/2000/svg">
<path fill-rule="evenodd" clip-rule="evenodd" d="M15 0C6.71573 0 0 6.71573 0 15C0 23.2843 6.71573 30 15 30C23.2843 30 30 23.2843 30 15C30 6.71573 23.2843 0 15 0ZM11.7019 7.04821C12.5553 7.00938 12.8279 6.99988 15.0006 6.99988H14.9981C17.1715 6.99988 17.4432 7.00938 18.2965 7.04821C19.1482 7.08721 19.7298 7.22205 20.2398 7.41988C20.7665 7.62405 21.2115 7.89739 21.6565 8.34239C22.1015 8.78706 22.3749 9.2334 22.5799 9.75957C22.7765 10.2682 22.9115 10.8496 22.9515 11.7013C22.9899 12.5546 22.9999 12.8273 22.9999 15C22.9999 17.1726 22.9899 17.4447 22.9515 18.298C22.9115 19.1493 22.7765 19.7308 22.5799 20.2397C22.3749 20.7657 22.1015 21.212 21.6565 21.6567C21.212 22.1017 20.7664 22.3757 20.2403 22.58C19.7313 22.7779 19.1493 22.9127 18.2977 22.9517C17.4443 22.9905 17.1725 23 14.9996 23C12.8271 23 12.5546 22.9905 11.7013 22.9517C10.8498 22.9127 10.2682 22.7779 9.75924 22.58C9.2334 22.3757 8.78706 22.1017 8.34256 21.6567C7.89772 21.212 7.62438 20.7657 7.41988 20.2395C7.22221 19.7308 7.08738 19.1495 7.04821 18.2978C7.00954 17.4445 6.99988 17.1726 6.99988 15C6.99988 12.8273 7.00988 12.5544 7.04804 11.7011C7.08638 10.8498 7.22138 10.2682 7.41971 9.75941C7.62472 9.2334 7.89805 8.78706 8.34306 8.34239C8.78773 7.89755 9.23407 7.62422 9.76024 7.41988C10.2689 7.22205 10.8503 7.08721 11.7019 7.04821Z" fill="#A7B0C0"/>
<path fill-rule="evenodd" clip-rule="evenodd" d="M14.2831 8.44145C14.4225 8.44124 14.5724 8.4413 14.7341 8.44137L15.0008 8.44145C17.1368 8.44145 17.39 8.44912 18.2335 8.48745C19.0135 8.52312 19.4368 8.65346 19.7188 8.76296C20.0922 8.90796 20.3583 9.08129 20.6382 9.3613C20.9182 9.6413 21.0915 9.90797 21.2368 10.2813C21.3463 10.563 21.4769 10.9863 21.5124 11.7663C21.5507 12.6097 21.559 12.863 21.559 14.998C21.559 17.133 21.5507 17.3864 21.5124 18.2297C21.4767 19.0097 21.3463 19.4331 21.2368 19.7147C21.0918 20.0881 20.9182 20.3539 20.6382 20.6337C20.3582 20.9137 20.0923 21.0871 19.7188 21.2321C19.4372 21.3421 19.0135 21.4721 18.2335 21.5078C17.3901 21.5461 17.1368 21.5544 15.0008 21.5544C12.8646 21.5544 12.6114 21.5461 11.7681 21.5078C10.9881 21.4718 10.5647 21.3414 10.2826 21.2319C9.90923 21.0869 9.64256 20.9136 9.36256 20.6336C9.08256 20.3536 8.90922 20.0876 8.76389 19.7141C8.65439 19.4324 8.52388 19.0091 8.48838 18.2291C8.45005 17.3857 8.44238 17.1324 8.44238 14.996C8.44238 12.8597 8.45005 12.6077 8.48838 11.7643C8.52405 10.9843 8.65439 10.561 8.76389 10.279C8.90889 9.90563 9.08256 9.63897 9.36256 9.35896C9.64256 9.07896 9.90923 8.90562 10.2826 8.76029C10.5646 8.65029 10.9881 8.52029 11.7681 8.48445C12.5061 8.45112 12.7921 8.44112 14.2831 8.43945V8.44145ZM19.2712 9.76986C18.7412 9.76986 18.3111 10.1994 18.3111 10.7295C18.3111 11.2595 18.7412 11.6895 19.2712 11.6895C19.8012 11.6895 20.2312 11.2595 20.2312 10.7295C20.2312 10.1995 19.8012 9.76953 19.2712 9.76953V9.76986ZM10.8925 14.9998C10.8925 12.731 12.7319 10.8915 15.0007 10.8914C17.2696 10.8914 19.1086 12.7309 19.1086 14.9998C19.1086 17.2687 17.2697 19.1073 15.0009 19.1073C12.732 19.1073 10.8925 17.2687 10.8925 14.9998Z" fill="#A7B0C0"/>
<path d="M15.0009 12.334C16.4736 12.334 17.6676 13.5278 17.6676 15.0007C17.6676 16.4734 16.4736 17.6674 15.0009 17.6674C13.5281 17.6674 12.3342 16.4734 12.3342 15.0007C12.3342 13.5278 13.5281 12.334 15.0009 12.334Z" fill="#A7B0C0"/>
</svg>
