<svg width="30" height="30" viewBox="0 0 30 30" fill="none" xmlns="http://www.w3.org/2000/svg">
<circle cx="15" cy="15" r="15" fill="#A7B0C0"/>
<g clip-path="url(#clip0)">
<path d="M13.25 13.8027L12.6799 15.4101H13.8193L13.25 13.8027Z" fill="#F8FAFD"/>
<path d="M15.341 6.96094C9.88121 6.96094 5.45459 10.4278 5.45459 14.7044C5.45459 17.4693 7.30499 19.8956 10.0888 21.2649C9.01862 24.9311 8.99061 24.9475 9.17186 25.0538C9.39925 25.1864 9.69419 25.0497 13.5853 22.326C14.1554 22.4059 14.742 22.4479 15.341 22.4479C20.8007 22.4479 25.2273 18.9811 25.2273 14.7044C25.2273 10.4278 20.8007 6.96094 15.341 6.96094ZM10.4456 16.8663C10.4456 17.1645 10.1893 17.4075 9.87544 17.4075C9.56155 17.4075 9.30533 17.1645 9.30533 16.8663V13.4999H8.41556C8.10661 13.4999 7.85615 13.2511 7.85615 12.9455C7.85615 12.6398 8.10578 12.3902 8.41473 12.3902H11.3353C11.6443 12.3902 11.8947 12.639 11.8947 12.9447C11.8947 13.2503 11.6435 13.4999 11.3353 13.4999H10.4456V16.8663ZM14.8763 17.4001C14.2831 17.4001 14.3927 16.9346 14.1192 16.4156H12.38C12.1089 16.9305 12.2152 17.4001 11.6229 17.4001C11.0519 17.4009 10.9514 17.0533 11.1252 16.5178L12.4896 12.9504C12.586 12.6786 12.8776 12.3993 13.2492 12.391C13.6216 12.3993 13.914 12.6786 14.0096 12.9504C14.9101 15.7433 16.1961 17.4009 14.8763 17.4001ZM18.1215 17.3243H16.2917C15.3368 17.3243 15.9177 16.035 15.7455 12.957C15.7455 12.6448 16.0066 12.3902 16.3279 12.3902C16.6493 12.3902 16.9104 12.6439 16.9104 12.957V16.2854H18.1223C18.4239 16.2854 18.6685 16.5186 18.6685 16.8045C18.6677 17.0912 18.423 17.3243 18.1215 17.3243ZM22.586 16.8976C22.5654 17.0467 22.4855 17.181 22.3644 17.2716C21.5776 17.8656 20.996 16.1338 20.2281 15.4006L20.0304 15.5975V16.8333C20.0304 17.1464 19.775 17.4001 19.4594 17.4001C19.1447 17.4001 18.8893 17.1464 18.8893 16.8333V12.957C18.8893 12.6448 19.1447 12.3902 19.4594 12.3902C19.7742 12.3902 20.0296 12.6439 20.0296 12.957V14.1747C21.0816 13.3854 21.6649 11.975 22.3298 12.6349C22.9823 13.2824 21.6312 13.8493 21.0718 14.6303C22.3932 16.4527 22.6445 16.498 22.586 16.8976Z" fill="#F8FAFD"/>
</g>
<defs>
<clipPath id="clip0">
<rect width="19.7727" height="19.7727" fill="white" transform="translate(5.45459 6.13672)"/>
</clipPath>
</defs>
</svg>
